<svg width="165.44340209960936px" height="79.52000274658204px" xmlns="http://www.w3.org/2000/svg" viewBox="167.27829895019534 35.23999862670898 165.44340209960936 79.52000274658204" style="background: rgba(0, 0, 0, 0);" preserveAspectRatio="xMidYMid"><defs><linearGradient id="editing-sticker-gradient" x1="0.5" y1="0.2" x2="0.5" y2="0.8"><stop offset="0" stop-color="#fd9"></stop><stop offset="1" stop-color="#9df"></stop></linearGradient><filter id="editing-sticker" x="-100%" y="-100%" width="300%" height="300%"><feMorphology operator="erode" radius="1" in="SourceAlpha" result="alpha-erode"></feMorphology><feConvolveMatrix order="3,3" divisor="1" kernelMatrix="0 1 0 1 1 1 0 1 0" in="alpha-erode" result="alpha-round"></feConvolveMatrix><feMorphology operator="dilate" radius="3.5" in="alpha-round" result="dilate-shadow"></feMorphology><feGaussianBlur in="dilate-shadow" stdDeviation="1.5" result="shadow"></feGaussianBlur><feFlood flood-color="#fff" result="flood-sticker"></feFlood><feComposite operator="in" in="flood-sticker" in2="alpha-round" result="comp-sticker"></feComposite><feMorphology operator="dilate" radius="3" in="comp-sticker" result="morph-sticker"></feMorphology><feConvolveMatrix order="3,3" divisor="1" kernelMatrix="0 1 0 1 1 1 0 1 0" in="morph-sticker" result="sticker"></feConvolveMatrix><feMerge><feMergeNode in="shadow"></feMergeNode><feMergeNode in="sticker"></feMergeNode><feMergeNode in="SourceGraphic"></feMergeNode></feMerge></filter></defs><g filter="url(#editing-sticker)"><g transform="translate(194.9611809849739, 87.45000171661377)"><path d="M35.94-24.90L35.94-19.65L34.34-19.65L34.34-5.25L35.94-5.25L35.94 0L23.84 0L23.84-5.25L25.38-5.25L25.38-16.45L19.94 0L15.20 0L9.60-16.29L9.60-5.25L11.14-5.25L11.14 0L0.64 0L0.64-5.25L2.24-5.25L2.24-19.65L0.64-19.65L0.64-24.90L15.30-24.90L18.62-14.91L21.82-24.90L35.94-24.90ZM58.82 0L37.22 0L37.22-5.25L38.82-5.25L38.82-19.65L37.22-19.65L37.22-24.90L58.82-24.90L58.82-15.23L51.65-15.23L51.65-19.65L47.78-19.65L47.78-14.59L50.59-14.59L50.59-10.94L47.78-10.94L47.78-5.25L51.65-5.25L51.65-10.30L58.82-10.30L58.82 0ZM83.90-24.90L83.90-17.15L78.40-17.15L78.40-19.65L76.35-19.65L76.35-5.25L78.59-5.25L78.59 0L65.15 0L65.15-5.25L67.39-5.25L67.39-19.65L65.34-19.65L65.34-17.15L59.84-17.15L59.84-24.90L83.90-24.90ZM103.07-24.90L108.48-5.25L109.76-5.25L109.76 0L97.22 0L97.22-5.25L99.14-5.25L98.62-7.81L94.27-7.81L93.76-5.25L95.68-5.25L95.68 0L84.74 0L84.74-5.25L86.02-5.25L91.42-24.90L103.07-24.90ZM96.29-17.57L94.98-11.20L97.92-11.20L96.61-17.57L96.29-17.57Z" fill="url(#editing-sticker-gradient)" stroke="#000" stroke-width="2.5"></path></g></g><style>text {
  font-size: 64px;
  font-family: Arial Black;
  dominant-baseline: central;
  text-anchor: middle;
}</style></svg>